<svg width="81" height="150" viewBox="0 0 81 150" fill="none" xmlns="http://www.w3.org/2000/svg">
<path d="M14.2677 30.2556L14.0826 32.8189C15.137 32.7943 16.1919 32.8298 17.2422 32.9251C18.1916 33.0158 19.1331 33.1762 20.0591 33.4049L20.9089 30.8416C20.9089 30.8416 20.0317 30.6326 18.493 30.4167C17.0905 30.2579 15.6782 30.204 14.2677 30.2556Z" fill="#26A9E0"/>
<path d="M18.613 119.364H20.837V119.1C20.9192 114.279 20.5491 103.282 19.2504 98.9674C18.0201 94.8552 13.9148 92.4187 9.62092 92.4187C7.05288 92.4667 4.60623 93.5206 2.80709 95.3537C1.00794 97.1867 0 99.6527 0 102.221C0 104.79 1.00794 107.256 2.80709 109.089C4.60623 110.922 7.05288 111.976 9.62092 112.024C9.82946 111.944 10.009 111.804 10.1357 111.62C10.2624 111.436 10.3302 111.219 10.3303 110.996C10.35 110.749 10.2923 110.503 10.1651 110.291C10.0379 110.079 9.84765 109.912 9.62092 109.813C7.63889 109.771 5.75225 108.954 4.3654 107.538C2.97856 106.121 2.2019 104.217 2.2019 102.235C2.2019 100.252 2.97856 98.3488 4.3654 96.9322C5.75225 95.5155 7.63889 94.6986 9.62092 94.6564C12.9415 94.6564 15.8235 95.9243 17.5849 100.187C19.2161 104.138 18.9557 114.758 18.613 119.076V119.364Z" fill="#26A9E0"/>
<path d="M10.7278 130.165C10.8683 129.576 14.1238 115.649 14.5418 111.212C14.6001 110.615 14.6789 109.988 14.7646 109.344C15.1381 106.431 15.5665 103.131 14.1032 100.4C13.7815 99.8232 13.3396 99.3226 12.8075 98.9318C12.2754 98.5409 11.6654 98.2691 11.019 98.1347C10.335 97.9607 9.62222 97.9318 8.92639 98.0498C8.23056 98.1679 7.56714 98.4302 6.97878 98.82C6.48887 99.1686 6.07246 99.6102 5.75337 100.12C5.43427 100.629 5.21876 101.197 5.11914 101.79C5.01952 102.383 5.03776 102.989 5.1728 103.575C5.30785 104.161 5.55706 104.715 5.90618 105.204C6.13234 105.356 6.40181 105.43 6.67385 105.415C6.94589 105.401 7.2057 105.298 7.41399 105.122C7.57129 104.968 7.68277 104.773 7.73601 104.56C7.78925 104.346 7.78217 104.122 7.71555 103.912C7.35564 103.406 7.21124 102.777 7.31402 102.164C7.4168 101.552 7.75837 101.005 8.26385 100.643C8.59523 100.438 8.96448 100.302 9.34954 100.244C9.7346 100.185 10.1276 100.204 10.505 100.3C10.8449 100.363 11.1678 100.497 11.4529 100.692C11.738 100.887 11.979 101.14 12.1602 101.435C13.2876 103.539 12.9244 106.339 12.5748 109.046C12.4892 109.714 12.4035 110.369 12.3452 110.989C11.9409 115.279 8.61339 129.494 8.57569 129.645L10.7278 130.165Z" fill="#26A9E0"/>
<path d="M8.17822 131.176L20.0008 131.173L40.9081 131.163V128.939L8.7368 128.884L8.17822 131.176Z" fill="#26A9E0"/>
<path d="M16.927 98.3985L16.2725 95.9312L16.6152 97.1649L16.2725 95.9518C16.5912 95.8627 24.0377 93.5941 20.4807 80.5104C18.7261 74.0542 14.9531 67.7934 11.6223 62.2658C8.1954 56.5876 5.24146 51.6837 4.58008 47.1877L7.10224 46.8142C7.68823 50.7893 10.6593 55.724 13.8052 60.9362C17.232 66.6042 21.0941 73.0296 22.9446 79.8284C24.5346 85.6884 24.3153 90.4311 22.3037 93.9299C21.1354 96.0411 19.2163 97.6361 16.927 98.3985Z" fill="#26A9E0"/>
<path d="M48.2346 117.496V83.3375C48.2346 82.9294 48.0725 82.5381 47.784 82.2495C47.4954 81.961 47.1041 81.7989 46.696 81.7989H43.6872C43.2791 81.7989 42.8878 81.961 42.5992 82.2495C42.3107 82.5381 42.1486 82.9294 42.1486 83.3375V117.496H48.2346Z" fill="#8BC53F"/>
<path d="M48.2346 87.8747H42.1588V90.5339H48.2346V87.8747Z" fill="#009344"/>
<path d="M48.2346 104.776H42.1588V107.243H48.2346V104.776Z" fill="#009344"/>
<path d="M48.2346 111.609H42.1588V117.496H48.2346V111.609Z" fill="#009344"/>
<path d="M55.7086 117.496V86.312C55.7086 85.8712 55.5335 85.4485 55.2218 85.1368C54.9101 84.8251 54.4873 84.65 54.0465 84.65H49.8966C49.4558 84.65 49.0331 84.8251 48.7214 85.1368C48.4097 85.4485 48.2346 85.8712 48.2346 86.312V117.496H55.7086Z" fill="#30A0D1"/>
<path d="M55.7051 86.737H48.2346V90.3454H55.7051V86.737Z" fill="#1B75BB"/>
<path d="M55.7051 103.066H48.2346V106.482H55.7051V103.066Z" fill="#1B75BB"/>
<path d="M55.7051 114.837H48.2346V117.496H55.7051V114.837Z" fill="#1B75BB"/>
<path d="M51.9699 98.8886C53.3326 98.8886 54.4372 97.7839 54.4372 96.4212C54.4372 95.0586 53.3326 93.9539 51.9699 93.9539C50.6072 93.9539 49.5026 95.0586 49.5026 96.4212C49.5026 97.7839 50.6072 98.8886 51.9699 98.8886Z" fill="#1B75BB"/>
<path d="M33.8042 117.496V83.3375C33.8042 82.9294 33.6421 82.5381 33.3536 82.2495C33.065 81.961 32.6737 81.7989 32.2656 81.7989H27.3686C26.9605 81.7989 26.5692 81.961 26.2806 82.2495C25.9921 82.5381 25.83 82.9294 25.83 83.3375V117.496H33.8042Z" fill="#74489C"/>
<path d="M33.8042 99.077H25.83V108.381H33.8042V99.077Z" fill="#8973B3"/>
<path d="M33.8042 93.5701H25.83V95.2801H33.8042V93.5701Z" fill="#8973B3"/>
<path d="M33.8042 111.989H25.83V113.699H33.8042V111.989Z" fill="#8973B3"/>
<path d="M29.8153 89.9651C30.7597 89.9651 31.5253 89.1995 31.5253 88.2551C31.5253 87.3106 30.7597 86.5451 29.8153 86.5451C28.8709 86.5451 28.1053 87.3106 28.1053 88.2551C28.1053 89.1995 28.8709 89.9651 29.8153 89.9651Z" fill="#8973B3"/>
<path d="M42.4159 117.496V80.6097C42.415 80.1695 42.2395 79.7477 41.9279 79.4367C41.6163 79.1258 41.1941 78.9511 40.7539 78.9511H35.4628C35.0226 78.9511 34.6004 79.1258 34.2888 79.4367C33.9772 79.7477 33.8017 80.1695 33.8008 80.6097V117.496H42.4159Z" fill="#F5C424"/>
<path d="M42.4159 85.9762H33.8042V90.5339H42.4159V85.9762Z" fill="#CF8A32"/>
<path d="M42.4159 107.624H33.8042V115.217H42.4159V107.624Z" fill="#CF8A32"/>
<path d="M39.6024 103.731C39.6024 104.159 39.4323 104.569 39.1296 104.872C38.8269 105.175 38.4164 105.345 37.9883 105.345C37.5602 105.345 37.1497 105.175 36.847 104.872C36.5443 104.569 36.3743 104.159 36.3743 103.731V94.0464C36.3743 93.6184 36.5443 93.2078 36.847 92.9051C37.1497 92.6024 37.5602 92.4324 37.9883 92.4324C38.4164 92.4324 38.8269 92.6024 39.1296 92.9051C39.4323 93.2078 39.6024 93.6184 39.6024 94.0464V103.731Z" fill="#CF8A32"/>
<path d="M63.2065 119.508H18.5581L18.9899 117.551H62.3567L63.2065 119.508Z" fill="#26A9E0"/>
<path d="M13.3048 109.793H9.15833V112.061H13.3048V109.793Z" fill="#26A9E0"/>
<path d="M6.57106 40.7418H4.02148C4.02511 37.9618 5.13106 35.2967 7.09681 33.331C9.06256 31.3652 11.7277 30.2593 14.5076 30.2556V32.8086C12.4039 32.8105 10.3868 33.6467 8.89884 35.134C7.41094 36.6213 6.57378 38.638 6.57106 40.7418Z" fill="#26A9E0"/>
<path d="M66.7808 30.2556L66.9693 32.8189C65.9138 32.7943 64.8577 32.8298 63.8063 32.9252C62.8569 33.0162 61.9154 33.1766 60.9894 33.4049L60.1361 30.8416C60.1361 30.8416 61.0168 30.6326 62.5555 30.4167C63.9579 30.2577 65.3703 30.2039 66.7808 30.2556Z" fill="#26A9E0"/>
<path d="M74.4775 40.7418H77.0305C77.0268 37.9618 75.9209 35.2967 73.9551 33.331C71.9894 31.3652 69.3243 30.2593 66.5443 30.2556V32.8086C68.6478 32.8105 70.6645 33.6468 72.1519 35.1342C73.6393 36.6216 74.4756 38.6383 74.4775 40.7418Z" fill="#26A9E0"/>
<path d="M62.271 119.364H60.047V119.1C59.9648 114.279 60.3349 103.282 61.6336 98.9674C62.8639 94.8552 66.9692 92.4187 71.2631 92.4187C73.8311 92.4667 76.2778 93.5206 78.0769 95.3537C79.8761 97.1867 80.884 99.6527 80.884 102.221C80.884 104.79 79.8761 107.256 78.0769 109.089C76.2778 110.922 73.8311 111.976 71.2631 112.024C71.0546 111.944 70.875 111.804 70.7483 111.62C70.6217 111.436 70.5538 111.219 70.5537 110.996C70.534 110.749 70.5917 110.503 70.7189 110.291C70.8461 110.079 71.0364 109.912 71.2631 109.813C73.2451 109.771 75.1318 108.954 76.5186 107.538C77.9054 106.121 78.6821 104.217 78.6821 102.235C78.6821 100.252 77.9054 98.3488 76.5186 96.9322C75.1318 95.5155 73.2451 94.6986 71.2631 94.6564C67.9459 94.6564 65.0639 95.9243 63.3025 100.187C61.6713 104.138 61.9112 114.758 62.2745 119.076L62.271 119.364Z" fill="#26A9E0"/>
<path d="M70.1562 130.165C70.0157 129.576 66.7636 115.649 66.3421 111.212C66.2873 110.615 66.205 109.988 66.1228 109.344C65.7458 106.431 65.3175 103.131 66.7842 100.4C67.1049 99.8225 67.5466 99.3213 68.0788 98.9304C68.6111 98.5394 69.2215 98.268 69.8683 98.1346C70.5523 97.9605 71.2652 97.9315 71.961 98.0495C72.6569 98.1676 73.3203 98.43 73.9086 98.82C74.894 99.5248 75.5596 100.592 75.7594 101.787C75.9592 102.982 75.6769 104.207 74.9743 105.194C74.7482 105.346 74.4787 105.42 74.2066 105.405C73.9346 105.39 73.6748 105.287 73.4665 105.112C73.3102 104.957 73.1994 104.762 73.1462 104.549C73.093 104.336 73.0995 104.112 73.1649 103.902C73.5249 103.396 73.6693 102.767 73.5665 102.154C73.4637 101.541 73.1221 100.994 72.6166 100.633C72.2853 100.428 71.916 100.292 71.531 100.233C71.1459 100.174 70.7529 100.194 70.3755 100.29C70.038 100.357 69.7182 100.493 69.4366 100.691C69.1551 100.889 68.9181 101.143 68.7409 101.438C67.6135 103.542 67.9733 106.342 68.3228 109.049C68.4119 109.717 68.4942 110.372 68.5524 110.992C68.9602 115.283 72.2842 129.497 72.3219 129.648L70.1562 130.165Z" fill="#26A9E0"/>
<path d="M72.7058 131.176L60.8832 131.173L39.976 131.163V128.939L72.1506 128.884L72.7058 131.176Z" fill="#26A9E0"/>
<path d="M63.957 98.3985C61.6715 97.6321 59.7566 96.0363 58.5906 93.9265C56.5722 90.4277 56.3597 85.702 57.9532 79.825C59.8003 73.0261 63.6726 66.6008 67.0892 60.9328C70.235 55.7137 73.2061 50.7859 73.7921 46.8107L76.3177 47.1843C75.6563 51.6666 72.6989 56.5704 69.2755 62.2624C65.9446 67.7899 62.1682 74.0508 60.4137 80.5069C56.8566 93.5906 64.3031 95.8592 64.6218 95.9483L63.957 98.3985Z" fill="#26A9E0"/>
<path d="M17.6809 119.508H62.3259L61.8941 117.551H18.5308L17.6809 119.508Z" fill="#26A9E0"/>
<path d="M67.5792 112.061H71.7257V109.793H67.5792V112.061Z" fill="#26A9E0"/>
<path d="M40.6544 59.3564C36.4265 59.3564 32.2935 58.1027 28.7782 55.7538C25.2628 53.4049 22.5229 50.0663 20.9049 46.1603C19.287 42.2542 18.8636 37.956 19.6885 33.8094C20.5133 29.6627 22.5492 25.8537 25.5388 22.8642C28.5284 19.8746 32.3373 17.8386 36.484 17.0138C40.6307 16.189 44.9288 16.6123 48.8349 18.2303C52.741 19.8482 56.0796 22.5881 58.4285 26.1035C60.7774 29.6189 62.0311 33.7518 62.0311 37.9798C62.0247 43.6473 59.7705 49.0808 55.763 53.0883C51.7554 57.0959 46.3219 59.3501 40.6544 59.3564ZM40.6544 19.1081C36.9219 19.1081 33.2733 20.2149 30.1699 22.2885C27.0664 24.3622 24.6476 27.3095 23.2193 30.7579C21.7909 34.2062 21.4172 38.0007 22.1454 41.6614C22.8735 45.3222 24.6709 48.6848 27.3101 51.324C29.9494 53.9633 33.312 55.7606 36.9727 56.4888C40.6335 57.217 44.4279 56.8432 47.8763 55.4149C51.3246 53.9865 54.272 51.5677 56.3456 48.4643C58.4192 45.3609 59.526 41.7122 59.526 37.9798C59.5206 32.9764 57.5306 28.1794 53.9927 24.6415C50.4547 21.1035 45.6578 19.1135 40.6544 19.1081Z" fill="#26A9E0"/>
<path d="M39.2323 25.8179C39.7224 24.8309 40.5208 24.8309 41.0074 25.8179L43.5844 31.0404C43.8863 31.5732 44.2988 32.0351 44.7941 32.3951C45.2895 32.7551 45.8562 33.0048 46.4561 33.1273L52.2201 33.9635C53.3098 34.1211 53.5566 34.8819 52.7684 35.6529L48.6082 39.7172C48.1946 40.1686 47.8827 40.7036 47.6935 41.2859C47.5044 41.8682 47.4423 42.4843 47.5116 43.0926L48.4848 48.8326C48.6733 49.9189 48.0256 50.3884 47.049 49.8606L41.9087 47.15C41.3516 46.8976 40.747 46.767 40.1353 46.767C39.5237 46.767 38.9191 46.8976 38.3619 47.15L33.2216 49.8606C32.245 50.3747 31.6007 49.9052 31.7858 48.8326L32.7727 43.0926C32.8413 42.4843 32.779 41.8684 32.5898 41.2862C32.4007 40.704 32.0891 40.169 31.6761 39.7172L27.4851 35.6392C26.6935 34.8682 26.9402 34.1074 28.0334 33.9498L33.7974 33.1136C34.397 32.9914 34.9634 32.7419 35.4583 32.3818C35.9531 32.0218 36.3648 31.5596 36.6656 31.0267L39.2323 25.8179Z" fill="#26A9E0"/>
<path d="M41.3055 0H39.0095V8.71448H41.3055V0Z" fill="#26A9E0"/>
<path d="M69.9351 13.7973L63.0507 19.2003L64.4742 21.0141L71.3586 15.6111L69.9351 13.7973Z" fill="#26A9E0"/>
<path d="M11.5031 13.9466L10.0861 15.7532L16.9428 21.1315L18.3599 19.325L11.5031 13.9466Z" fill="#26A9E0"/>
<path d="M68.9603 150H62.4492L61.4966 129.302H70.8759L68.9603 150ZM64.5465 147.793H66.9453L68.4428 131.505H63.796L64.5465 147.793Z" fill="#26A9E0"/>
<path d="M18.8426 150H12.3316L10.4297 129.302H19.7953L18.8426 150ZM14.3294 147.793H16.7282L17.4787 131.505H12.8456L14.3294 147.793Z" fill="#26A9E0"/>
</svg>
